<?xml version="1.0" encoding="utf-8"?>
<!-- Generator: Adobe Illustrator 24.0.1, SVG Export Plug-In . SVG Version: 6.00 Build 0)  -->
<svg version="1.1" id="Capa_1" xmlns="http://www.w3.org/2000/svg" xmlns:xlink="http://www.w3.org/1999/xlink" x="0px" y="0px"
	 viewBox="0 0 176.9 119.8" style="enable-background:new 0 0 176.9 119.8;" xml:space="preserve" fill="#ffffff">

<g>
	<path class="st0" d="M0.3,114.5h12.4c0.5,0,0.9-0.2,1.2-0.4c0.3-0.3,0.4-0.7,0.5-1.2c0.5-3.2-1.2-3-1.2-3H6.7c-2.3,0-4-0.5-5.1-1.6
		c-1.1-1.1-1.6-2.8-1.6-5.1v-1c0-2.3,0.5-4,1.6-5.1c1.1-1.1,2.8-1.6,5.1-1.6h11.7v4.7H8c-1.3,0-2,0.7-2,2v0.7c0,1.3,0.7,2,2,2h6
		c2.2,0,3.8,0.5,4.8,1.5c1,1,1.5,2.6,1.5,4.8v1.7c0,2.2-0.5,3.8-1.5,4.8c-1,1-2.5,1.5-4.6,1.5c-0.1,0-0.1,0-0.2,0H0.3L0.3,114.5z"/>
	<path class="st0" d="M45.1,112.7c0,2.4-0.5,4.1-1.6,5.2c-1.1,1.1-2.8,1.6-5.2,1.6h-8.5c-2.4,0-4.1-0.5-5.2-1.6
		c-1.1-1.1-1.6-2.8-1.6-5.2v-10.8c0-2.4,0.5-4.1,1.6-5.2c1.1-1.1,2.8-1.6,5.2-1.6h8.5c2.4,0,4.1,0.5,5.2,1.6
		c1.1,1.1,1.6,2.8,1.6,5.2V112.7z M39,101.9c0-1.4-0.7-2-2-2h-5.8c-1.4,0-2,0.7-2,2v10.8c0,1.4,0.7,2,2,2H37c1.4,0,2-0.7,2-2V101.9z
		"/>
	<path class="st0" d="M54.8,114.4h12.4v4.7H48.7V95.4h6.1V114.4z"/>
	<path class="st0" d="M84.9,95.4H91v17.3c0,2.4-0.5,4.1-1.6,5.2c-1.1,1.1-2.8,1.6-5.2,1.6h-7.8c-2.4,0-4.1-0.5-5.2-1.6
		c-1.1-1.1-1.6-2.8-1.6-5.2V95.4h6.1v17.3c0,1.4,0.7,2,2,2h5.1c1.4,0,2-0.7,2-2V95.4z"/>
	<path class="st0" d="M115.8,119.2h-6.4l-8.1-14.2v14.2h-6.1V95.4h6.4l8.1,14.2V95.4h6.1V119.2z"/>
	<path class="st0" d="M136.6,119.2h-6.1V95.4h6.1v9.3h3l5.3-9.3h6.4l-6.6,11.7l6.6,12h-6.4l-5.3-9.7h-3V119.2z"/>
	<path class="st0" d="M158.7,119.2h-6.6l9-23.7h6.8l9,23.7h-6.6l-1.5-4.2h-8.5L158.7,119.2z M161.7,110.5h5.4l-2.7-8L161.7,110.5z"
		/>
	<rect x="120" y="95.4" class="st0" width="6.1" height="23.7"/>
</g>
<g>
	<g>
		<path class="st0" d="M115.5,44.7c-0.4,0-0.7-0.2-0.9-0.5c-0.3-0.5-0.1-1.2,0.4-1.5l9-5.1V25.2l-34.1,19v24.1l11.3-6.6
			c-0.1-0.7,0.1-1.3,0.4-1.9c0.9-1.5,2.8-2,4.3-1.1c1.5,0.9,2,2.8,1.1,4.3c-0.9,1.5-2.7,1.9-4.2,1.1l-12.5,7.3
			c-0.1,0.1-0.2,0.1-0.3,0.1v11.2l34.1-19.7v-23l-8,4.5C115.8,44.7,115.6,44.7,115.5,44.7z"/>
		<path class="st0" d="M75.6,49.3c-0.6-0.3-0.7-1-0.4-1.6c0.3-0.6,1-0.7,1.6-0.4L87,53.4v-9.3L52.9,23.8v26.3L65,57
			c1-0.6,2.3-0.7,3.3-0.1c1.5,0.9,2,2.8,1.1,4.3c-0.9,1.5-2.8,2-4.3,1.1c-1-0.6-1.5-1.7-1.5-2.8l-10.8-6.1v9.7L87,82.8V56.1
			L75.6,49.3z"/>
	</g>
	<path class="st0" d="M113.3,27.9l-10.7-6c-0.5-0.3-0.7-0.9-0.4-1.4c0.3-0.5,0.9-0.7,1.4-0.4l11.6,6.4c0.1,0,0.2,0.1,0.2,0.2
		l8.5-4.7L88.4,1.5L67,13.9l11,6.4c0.9-0.5,2.2-0.6,3.2,0c1.5,0.9,2,2.8,1.1,4.3c-0.9,1.5-2.8,2-4.3,1.1c-1.1-0.6-1.6-1.8-1.5-3
		l-12.2-7.2l-10,5.8l34.3,20.4L113.3,27.9z"/>
</g>
</svg>
